<?xml version="1.0" encoding="UTF-8"?>
<svg enable-background="new 0 0 272 272" version="1.1" viewBox="0 0 272 272" xml:space="preserve" xmlns="http://www.w3.org/2000/svg"><g>

<path d="m168.53 1c0.42311 0.83159 0.57904 1.7388 0.29965 2.4826-1.9603 5.2188 0.56049 7.7918 5.1314 9.7162 6.9618 2.931 13.768 6.2309 21.137 9.601-3.2731 8.8118 3.5735 10.897 9.8105 13.286 0 4.7929-0.14762 9.2894 0.0868 13.766 0.0737 1.408 1.0928 3.9055 1.816 3.9563 4.8339 0.33947 3.4652 3.2619 3.1144 6.1212-1.1109 9.0547-2.1808 18.12-2.9094 27.21-0.11365 1.4176 1.2676 3.6488 2.5828 4.3815 15.798 8.8017 28.284 21.273 39.642 35.067 1.4479 1.7583 3.4293 3.0677 4.9674 4.7629 6.56 7.2301 5.7579 15.078-2.9064 19.21-5.5404 2.642-8.2807 5.8746-9.5356 11.843-1.8466 8.7824-6.6572 17.018-4.786 26.432 0.66628 3.3519 2.2419 6.5272 2.8598 9.883 0.40741 2.2126 0.77308 5.5846-0.44794 6.7382-4.3684 4.127-8.9715 8.7829-14.387 10.727-3.1639 1.1357-8.0146-2.5771-12.156-3.9609-2.6971-0.90122-5.4471-1.919-8.2393-2.1805-2.6243-0.24571-4.6022 1.3939-3.6576 4.298 2.4157 7.4267 0.73834 14.071-5.0372 18.729-9.4025 7.583-18.864 15.462-29.413 21.155-11.649 6.2858-24.549 10.257-36.916 15.205-0.70845 0.28342-1.5302 0.28369-3.4135 0.60709 2.1202-3.7041 3.8011-6.6406 5.7964-10.126-6.2596 0.47919-11.627 0.89005-17.385 1.3308-9.634-13.584-19.501-27.497-30.068-42.398-4.1364 6.618-7.9983 12.797-12.269 19.63-14.864-14.39-25.703-30.933-33.755-50.636-4.2795 5.7642-8.1386 10.962-12.713 17.123-1.7761-3.8794-3.4962-6.9452-4.6242-10.215-6.1931-17.953-9.2729-36.428-9.1575-55.451 0.07666-12.641-0.29325-25.242 2.9493-37.688 3.991-15.318 11.284-28.822 21.237-40.946 13.32-16.228 30.857-26.739 49.435-35.716 8.7119-4.2099 17.602-8.051 26.325-12.238 2.9261-1.4045 5.3957-1.2464 7.9796 0.59032 1.7432 1.2392 3.6338 2.271 5.9634 3.7069 1.8517-5.2013 3.644-10.236 5.2743-15.637 12.192-0.36659 24.546-0.36659 37.369-0.36659m-126.72 164.98c6.1403-6.2054 12.281-12.411 19.231-19.435-0.38369 18.878 4.4846 35.229 12.437 51.567 2.8598-7.0357 5.4465-13.399 8.3825-20.622 10.247 22.029 18.848 43.875 34.295 62.185 0.14768-7.1507-0.22336-14.11-1.6857-20.831-2.7192-12.499-12.154-24.225-19.227-34.66 0.11893-0.14591 1.2445-0.43227 2.9164 1.4543 12.833 7.81 24.363 16.892 30.091 31.624 1.0296-11.805-1.4492-22.013-9.691-30.66-6.7706-7.1034-12.868-14.856-19.143-22.421-7.0658-8.5187-10.62-18.36-10.633-29.461-0.0025-2.0254-0.16883-4.0506-0.31783-7.3775-8.6446 12.812-4.9556 25.694-4.9297 38.172-9.9807-23.07-8.1828-46.085 1.0024-69.575-28.665 15.235-42.225 38.773-44.055 70.075 0.06767 0.24169 0.05258 0.4668 0.12026 0.70848 0.18538-0.18583 0.37075-0.37165 1.2075-0.74139m102.03 30.684c-8.3461-11.379-17.283-22.383-24.836-34.266-5.2615-8.2779-6.4769-18.179-6.1622-29.116 8.8491 7.9909 16.135 15.926 20.212 26.133 2.0764 5.1982 4.8521 6.493 9.3997 4.309-0.56905-8.0817-1.3498-16.008-1.6035-23.95-0.15395-4.8209 3.383-6.7748 7.7272-4.6343 1.3086 0.64481 2.8121 1.5348 3.4835 2.7298 4.9126 8.7434 13.32 10.232 22.148 11.194 6.5453 0.71318 13.051 1.7875 20.421 2.8194-1.1653 4.4673-2.0524 8.1258-3.083 11.743-0.95584 3.3551-2.4593 6.6006-3.0292 10.01-1.4349 8.5835 7.43 16.668 14.605 12.406 9.8951-5.8788 18.674-13.695 27.579-21.106 1.0876-0.90518 0.87628-5.1284-0.28099-6.5792-1.9409-2.4331-5.1274-3.8728-7.7962-5.735-1.3732 1.4672-2.2488 2.4027-3.9734 4.2453-1.6452-5.5725-3.0685-10.393-4.6203-15.65l32.862-1.6906c0.24885-0.543 0.49771-1.086 0.74655-1.629-2.9425-3.7227-5.434-7.9466-8.9112-11.075-10.767-9.6864-21.663-19.247-34.918-25.645-5.5152-2.6619-7.3979-7.191-6.3006-13.317 0.60936-3.402 1.5569-6.7435 2.3758-10.213-5.6741-4.8165-11.277-9.5727-17.703-15.027 1.7897-1.0226 4.0003-2.3239 6.2498-3.554 1.0677-0.58387 2.8026-0.74171 3.218-1.5904 2.0815-4.2533 3.8263-8.6713 5.8026-13.296-3.3447-1.2064-5.9493-2.3143-8.6564-3.0397-1.0922-0.29266-2.9469-0.20866-3.5408 0.48561-6.8889 8.0527-13.603 16.255-20.835 24.988 6.1527 1.2374 11.555 2.0236 16.78 3.4557 5.7092 1.5648 5.9758 2.7171 2.951 8.1908-1.927-0.88985-3.7894-2.1883-5.8333-2.6134-6.7699-1.4081-13.57-3.1271-20.427-3.5084-5.0664-0.2818-8.6534 3.9539-8.9964 7.7658-0.21712 2.4128-1.236 4.7535-1.8953 7.1266-0.51203-0.02427-1.024-0.04853-1.5361-0.0728 2.0956 0.76201 4.1912 1.524 7.4558 2.7111-6.0773 4.4867-12.585 1.9733-17.011 3.5727 0 5.8995 1.0694 11.458-0.22152 16.4-2.7297 10.45-4.1769 20.815-2.791 31.541 0.0254 0.19684-0.35665 0.44633-0.93586 1.1251-6.3834-5.4964-9.931-12.271-10.133-20.671-0.15648-6.4936 0.27008-13.009-0.0616-19.489-0.50545-9.8733-3.6354-13.163-13.314-14.98-4.4119-0.8284-6.5322-4.8487-4.6495-8.9293 2.6696-5.7863 7.6036-9.0282 13.496-10.09 7.2469-1.3057 14.67-1.6308 21.611-2.3383-6.9096-8.6762-20.284-10.678-30.908-4.0867-6.3673 3.9502-10.389 9.7747-12.98 16.634-4.9528 13.113-0.71732 20.479 12.991 22.862 0.26715 0.0464 0.48178 0.39503 0.72091 0.60265 0.55821 0.4054 1.1164 0.81079 1.6746 1.2162-7.8881 3.3252-13.954 8.1414-14.38 16.59-0.38376 7.5995-0.0809 15.234-0.0809 23.859l6.4726-6.7779c0.30768 1.0514 0.52292 1.4726 0.54367 1.9031 0.8267 17.151 6.9426 31.685 19.052 44.32 7.9765 8.3231 14.809 18.05 20.653 28.028 6.6268 11.315 7.8464 23.614 0.29073 35.517-0.39523 0.62261-0.60107 1.3655-1.12 2.5778 1.2029-0.18481 1.8862-0.11682 2.3797-0.3907 15.689-8.7073 19.752-26.323 9.2622-40.917-2.7083-3.7682-6.0892-7.053-9.6386-11.083m-103.78-118.07c-11.106 15.41-17.345 41.516-14.602 56.008 15.013-29.169 33.192-55.726 65.22-70.32-6.9187-1.7591-12.275 1.0069-17.215 4.1666-4.237 2.7102-8.1177 2.8595-13.275 0.47211 15.582-13.644 34.697-16.368 53.328-20.689-2.5302-0.57255-5.0626-0.97212-7.4232-0.50438-11.071 2.1937-22.122 4.5037-33.128 7.0037-14.049 3.1913-24.493 11.558-32.903 23.863m91.545-28.703c6.5111 4.4498 13.022 8.8996 20.44 13.969 1.6298-19.901 3.1796-38.824 4.7708-58.253-5.6118 0.67899-10.738 1.0964-15.761 2.0524-1.2251 0.23315-2.8255 2.117-3.0426 3.4405-1.4709 8.9669 0.89666 17.474 3.6474 25.899 1.8781 5.752 3.7167 11.517 5.573 17.276-4.0917-3.6121-6.967-7.8813-10.296-11.761-4.8587-5.6624-9.9604-11.126-15.168-16.471-0.91205-0.93615-3.1839-1.6242-4.2598-1.1469-6.3344 2.8105-12.501 6.0001-18.078 8.7445 10.619 5.3406 21.087 10.605 32.174 16.251m32.512-10.258c-0.68109 5.5369-1.3622 11.074-2.0433 16.611 0.33724 0.18928 0.67446 0.37857 1.0117 0.56785 7.8609-9.4081 15.722-18.816 24.134-28.884l-20.337-6.6118c-0.97041 6.3287-1.822 11.882-2.7648 18.317m60.256 138.84c-6.7006 6.1162-13.401 12.232-20.955 19.128 10.41 0.71059 10.41 0.71056 18.318 6.3761 2.3372 1.6745 6.375 0.19967 6.1468-2.6042-0.6319-7.7633-1.8341-15.48-3.51-22.9m-50.712 46.67c-2.2129 4.817-4.4258 9.634-6.6387 14.451 9.4005-3.627 15.275-10.527 19.786-18.528 5.7573-10.212 7.2251-7.3973-3.6987-15.993-3.0734 6.5173-6.1064 12.949-9.4485 20.071z" fill="#060302"/>
<path d="m144.07 196.93c3.3107 3.7684 6.6916 7.0532 9.3999 10.821 10.489 14.594 6.4269 32.21-9.2622 40.917-0.49353 0.27388-1.1768 0.20589-2.3797 0.3907 0.51896-1.2123 0.7248-1.9552 1.12-2.5778 7.5556-11.903 6.3361-24.202-0.29073-35.517-5.8437-9.9777-12.676-19.705-20.653-28.028-12.109-12.635-18.225-27.169-19.052-44.32-0.0208-0.43057-0.23599-0.85176-0.54367-1.9031-2.075 2.1729-3.8362 4.0172-6.4726 6.7779 0-8.6248-0.30286-16.259 0.0809-23.859 0.42661-8.4482 6.4922-13.264 14.38-16.59-0.55822-0.40541-1.1164-0.8108-1.6746-1.2162-0.23913-0.20762-0.45376-0.55621-0.72091-0.60265-13.709-2.3829-17.944-9.749-12.991-22.862 2.5907-6.8594 6.6127-12.684 12.98-16.634 10.624-6.5911 23.999-4.5895 30.908 4.0867-6.9402 0.70747-14.364 1.0326-21.611 2.3383-5.8929 1.0617-10.827 4.3036-13.496 10.09-1.8827 4.0807 0.23755 8.1009 4.6495 8.9293 9.6786 1.8173 12.809 5.1066 13.314 14.98 0.33172 6.48-0.0948 12.995 0.0616 19.489 0.20241 8.4 3.7501 15.175 10.133 20.671 0.57921-0.67873 0.96129-0.92822 0.93586-1.1251-1.3859-10.726 0.0613-21.091 2.791-31.541 1.2909-4.9419 0.22152-10.5 0.22152-16.4 4.426-1.5994 10.933 0.91396 17.011-3.5727-3.2646-1.1871-5.3602-1.9491-7.4558-2.7111 0.51202 0.02427 1.024 0.04853 1.5361 0.0728 0.65931-2.3731 1.6782-4.7138 1.8953-7.1266 0.34302-3.8118 3.9299-8.0476 8.9964-7.7658 6.8566 0.38137 13.657 2.1003 20.427 3.5084 2.044 0.42512 3.9063 1.7236 5.8333 2.6134 3.0248-5.4736 2.7582-6.626-2.951-8.1908-5.2253-1.4322-10.628-2.2183-16.78-3.4557 7.2324-8.7328 13.946-16.935 20.835-24.988 0.59394-0.69427 2.4486-0.77826 3.5408-0.48561 2.7071 0.72538 5.3116 1.8333 8.6564 3.0397-1.9763 4.6249-3.7211 9.0429-5.8026 13.296-0.41534 0.84868-2.1503 1.0065-3.218 1.5904-2.2495 1.2301-4.46 2.5314-6.2498 3.554 6.4257 5.4545 12.029 10.211 17.703 15.027-0.81891 3.4696-1.7664 6.811-2.3758 10.213-1.0973 6.1263 0.78534 10.655 6.3006 13.317 13.255 6.3975 24.151 15.958 34.918 25.645 3.4772 3.1283 5.9688 7.3522 8.9112 11.075-0.24884 0.54299-0.4977 1.086-0.74655 1.629-10.653 0.54805-21.306 1.0961-32.862 1.6906 1.5518 5.2562 2.9751 10.077 4.6203 15.65 1.7246-1.8426 2.6002-2.7781 3.9734-4.2453 2.6688 1.8622 5.8553 3.3018 7.7962 5.735 1.1573 1.4507 1.3686 5.674 0.28099 6.5792-8.9042 7.4106-17.683 15.227-27.579 21.106-7.1746 4.2625-16.04-3.8225-14.605-12.406 0.56996-3.4095 2.0734-6.655 3.0292-10.01 1.0306-3.6176 1.9177-7.276 3.083-11.743-7.3694-1.0319-13.875-2.1062-20.421-2.8194-8.8278-0.96193-17.235-2.4507-22.148-11.194-0.67141-1.195-2.1749-2.085-3.4835-2.7298-4.3442-2.1405-7.8812-0.18666-7.7272 4.6343 0.25365 7.9428 1.0344 15.869 1.6035 23.95-4.5476 2.1841-7.3233 0.88919-9.3997-4.309-4.0774-10.208-11.363-18.142-20.212-26.133-0.31475 10.938 0.9007 20.839 6.1622 29.116 7.5531 11.883 16.49 22.887 25.075 34.528m21.893-73.555c0.20952 0.0101 0.41904 0.0203 0.62856 0.0304-0.21138-0.1184-1.5364-1.5974-1.0551-3.5779 2.0418-1.4689 3.9843-1.2991 7.0952-2.4087-2.0475-1.4383-4.2281-3.6159-6.8533-4.5681-1.5323-0.55581-4.2992 0.33123-5.5078 1.5575-0.76136 0.77253-0.2069 3.7645 0.73068 5.052 1.1377 1.5624 3.3009 2.3782 4.9617 3.9147m15.376-20.439c1.612-2.1314 4.6857-4.4213 4.4761-6.3552-0.27936-2.5767-2.9964-4.973-4.8928-7.2589-1.1417-1.3762-2.5846-2.6229-4.1339-3.5018-1.2023-0.68214-2.7787-0.7049-4.3859-1.0649 1.8641 3.1423 3.3822 5.7013 5.1674 8.7105-7.0796 1.6191-13.627 1.9274-19.135 7.2152 5.0585 2.3739 9.3373 4.4967 13.711 6.4008 4.0026 1.7424 7.1133 0.72426 9.1933-4.1456m10.302 18.888c6.071 3.7481 10.275 8.875 11.548 16.73 3.7689-3.214 7.0208-5.9871 10.817-9.2246-11.414-6.1356-22.312-11.994-33.743-18.138 1.3979 6.0754 7.1185 7.121 11.378 10.633z" fill="#f91900"/>
<path d="m97.471 187.21c7.4646 10.028 14.278 19.133 16.997 31.631 1.4624 6.7216 1.8334 13.681 1.6857 20.831-15.447-18.311-24.048-40.157-34.295-62.185-2.936 7.2231-5.5226 13.587-8.3825 20.622-7.9519-16.338-12.82-32.689-12.437-51.567-6.9505 7.0242-13.571 14.206-20.141 20.398-0.6116 0.15209-0.45704-1.4968-0.45704-1.4968 1.4886-31.05 15.429-54.273 44.094-69.508-9.1851 23.49-10.983 46.505-1.0024 69.575-0.02595-12.477-3.7149-25.359 4.9297-38.172 0.149 3.3269 0.31538 5.3521 0.31783 7.3775 0.01346 11.101 3.5673 20.942 10.633 29.461 6.275 7.5653 12.373 15.318 19.143 22.421 8.2419 8.647 10.721 18.856 9.691 30.66-5.7278-14.731-17.164-23.744-30.522-31.858-0.30446-0.11458 0.19664 0.099-0.95499-0.45522-0.70773-0.3285-1.1205-0.47445-1.3459-0.47993 0.21186 0.21907 0.18962 0.22748 0.54169 0.73771 0.54791 0.76928 1.2365 1.7859 1.5038 2.0065z" fill="#f91900"/>
<path d="m40.262 78.304c8.2008-12.012 18.645-20.379 32.694-23.57 11.006-2.5 22.057-4.81 33.128-7.0037 2.3605-0.46774 4.8929-0.068172 7.4232 0.50438-18.631 4.3209-37.746 7.0449-53.328 20.689 5.1576 2.3874 9.0383 2.2381 13.275-0.47211 4.9398-3.1598 10.297-5.9257 17.215-4.1666-32.027 14.594-50.206 41.151-65.22 70.32-2.7424-14.492 3.4962-40.598 14.812-56.301z" fill="#F61900"/>
<path d="m131.29 49.703c-10.777-5.4552-21.245-10.719-31.864-16.06 5.5774-2.7443 11.744-5.9339 18.078-8.7445 1.0759-0.47738 3.3478 0.21071 4.2598 1.1469 5.2071 5.3447 10.309 10.808 15.168 16.471 3.3291 3.8798 6.2044 8.149 10.296 11.761-1.8562-5.7592-3.6948-11.524-5.573-17.276-2.7507-8.4243-5.1183-16.932-3.6474-25.899 0.21709-1.3235 1.8174-3.2074 3.0426-3.4405 5.0233-0.95596 10.149-1.3734 15.761-2.0524-1.5913 19.43-3.141 38.352-4.7708 58.253-7.4175-5.0693-13.929-9.519-20.749-14.16z" fill="#F71900"/>
<path d="m164.15 39.196c0.8972-5.994 1.7488-11.548 2.7192-17.876 6.7051 2.1799 12.901 4.1943 20.337 6.6118-8.4117 10.067-16.273 19.475-24.133 28.884-0.33722-0.18928-0.67444-0.37856-1.0117-0.56785 0.68109-5.5369 1.3622-11.074 2.0889-17.051z" fill="#F51800"/>
<path d="m224.72 178.32c1.3263 7.5773 2.5285 15.294 3.1604 23.057 0.22822 2.8039-3.8096 4.2787-6.1468 2.6042-7.9079-5.6656-7.9079-5.6655-18.318-6.3761 7.554-6.8952 14.255-13.011 21.305-19.286z" fill="#F61900"/>
<path d="m173.81 224.8c3.1875-6.7767 6.2206-13.208 9.2939-19.726 10.924 8.5961 9.4559 5.7815 3.6987 15.993-4.511 8.0013-10.385 14.901-19.786 18.528 2.2129-4.817 4.4258-9.634 6.7933-14.796z" fill="#F41800"/>

<path d="m181.19 103.27c-1.9247 4.5359-5.0354 5.554-9.038 3.8116-4.374-1.904-8.6528-4.0268-13.711-6.4007 5.5087-5.2878 12.056-5.5961 19.135-7.2152-1.7852-3.0092-3.3032-5.5682-5.1674-8.7105 1.6072 0.35999 3.1836 0.38275 4.3859 1.0649 1.5492 0.87897 2.9922 2.1256 4.1339 3.5018 1.8963 2.286 4.6134 4.6823 4.8927 7.2589 0.20966 1.9339-2.8641 4.2238-4.6313 6.6891m-14.03-1.6175c2.6666 1.2016 5.3332 2.4032 8.4425 3.8042-1.3548-7.4721-1.6499-7.603-8.4425-3.8042z" fill="#0F0403"/>
<path d="m191.35 121.61c-3.9668-3.3038-9.6874-4.3495-11.085-10.425 11.431 6.1445 22.328 12.003 33.743 18.138-3.7964 3.2374-7.0484 6.0106-10.817 9.2246-1.2725-7.8551-5.4767-12.982-11.84-16.938z" fill="#0F0100"/>
<path d="m166.27 122.79c3.0511 4.5834-4.131-1.7724-5.2687-3.3349-0.93758-1.2876-1.492-4.2795-0.73068-5.052 1.2085-1.2263 3.9755-2.1133 5.5078-1.5575 2.6252 0.95222 4.8058 3.1298 6.8533 4.5681-3.0779 1.4406-5.5997 2.5454-6.5075 3.7625-0.48826 0.84067 0.1459 1.6139 0.1459 1.6139z" fill="#120200"/>



<path d="m167.06 101.66c6.8909-3.8876 7.186-3.674 8.5408 3.7981-3.1093-1.401-6.1235-2.3212-8.5408-3.7981z" fill="#ddd"/>
</g></svg>
